<svg xmlns="http://www.w3.org/2000/svg" viewBox="0 0 80.5 58.63"><defs><style>.cls-1{fill:#e21437;}</style></defs><g id="Layer_2" data-name="Layer 2"><g id="Layer_1-2" data-name="Layer 1"><path class="cls-1" d="M70.71,0H9.79A9.79,9.79,0,0,0,0,9.79V26a9.79,9.79,0,0,0,9.79,9.79H48.63a1,1,0,0,0,1-1h0a1,1,0,0,0-1-1H9.79A7.79,7.79,0,0,1,2,26V9.79A7.79,7.79,0,0,1,9.79,2H70.71A7.8,7.8,0,0,1,78.5,9.79V26a7.81,7.81,0,0,1-4.27,7,1,1,0,0,0-.58.91h0a1,1,0,0,0,1.41.91A9.82,9.82,0,0,0,80.5,26V9.79A9.81,9.81,0,0,0,70.71,0Z"/><path class="cls-1" d="M74.14,42.06l-.49.16L69.8,43.46,68.13,44a.9.9,0,0,0-.48,1.36L73.3,54A.91.91,0,0,1,73,55.3l-5.36,3.2a.91.91,0,0,1-1.24-.3L60.76,49a.91.91,0,0,0-1.4-.18L55,53a.91.91,0,0,1-1.54-.65V29.2a.91.91,0,0,1,1.39-.77l8.69,5.35,3.25,2L73.65,40l.69.42A.91.91,0,0,1,74.14,42.06Z"/></g></g></svg>