<svg width="2411" height="2393" viewBox="0 0 2411 2393" fill="none" xmlns="http://www.w3.org/2000/svg">
<circle cx="1205.5" cy="1196.5" r="1146.31" stroke="white" stroke-width="100.388"/>
<path d="M383.521 2018.25L383.508 2018.24L383.494 2018.22C163.613 1798.34 42.7402 1506.66 42.7402 1196.22C42.7402 554.891 564.168 33.4628 1205.5 33.4628C1846.82 33.4628 2368.25 555.386 2368.25 1196.22C2368.25 1506.68 2247.37 1798.84 2027.53 2018.2L2027.51 2018.21L2027.5 2018.22C1807.62 2238.1 1515.94 2358.98 1205.5 2358.98C895.035 2358.98 602.872 2238.09 383.521 2018.25ZM1205.5 42.0879C569.011 42.0879 51.3653 559.734 51.3653 1196.22C51.3653 1832.71 569.011 2350.35 1205.5 2350.35C1841.98 2350.35 2359.63 1832.71 2359.63 1196.22C2359.63 559.724 1841.47 42.0879 1205.5 42.0879Z" stroke="white" stroke-width="66.9256"/>
<mask id="path-3-inside-1_1092_180" fill="white">
<path d="M875.037 1671.1C873.526 1671.1 871.512 1671.1 870.001 1670.6C858.416 1669.09 847.839 1662.04 842.299 1651.96L627.735 1280.76C617.158 1262.63 623.705 1239.46 641.334 1229.38C659.466 1218.81 682.635 1225.35 692.708 1242.98L882.593 1571.38L1722.72 731.252C1737.32 716.645 1761.5 716.645 1776.11 731.252C1790.71 745.858 1790.71 770.034 1776.11 784.641L901.732 1660.02C894.681 1667.07 885.111 1671.1 875.037 1671.1Z"/>
</mask>
<path d="M870.001 1670.6L912.328 1543.62L900.097 1539.54L887.313 1537.87L870.001 1670.6ZM842.299 1651.96L959.581 1587.46L958.896 1586.21L958.184 1584.98L842.299 1651.96ZM627.735 1280.76L743.62 1213.77L743.487 1213.54L743.353 1213.31L627.735 1280.76ZM641.334 1229.38L707.743 1345.6L708.261 1345.3L708.778 1345L641.334 1229.38ZM692.708 1242.98L576.493 1309.39L576.662 1309.69L576.834 1309.98L692.708 1242.98ZM882.593 1571.38L766.718 1638.38L853.976 1789.29L977.24 1666.02L882.593 1571.38ZM1722.72 731.252L1817.36 825.899L1722.72 731.252ZM1776.11 784.641L1681.46 689.994L1681.43 690.021L1681.4 690.048L1776.11 784.641ZM901.732 1660.02L996.379 1754.67L996.406 1754.64L996.434 1754.61L901.732 1660.02ZM875.037 1537.25C873.669 1537.25 877.445 1537.2 882.057 1537.53C884.638 1537.71 888.51 1538.08 893.219 1538.86C897.826 1539.63 904.495 1541.01 912.328 1543.62L827.673 1797.58C843.729 1802.93 857.271 1804.14 862.981 1804.55C869.356 1805.01 874.894 1804.95 875.037 1804.95V1537.25ZM887.313 1537.87C916.459 1541.67 943.824 1558.81 959.581 1587.46L725.016 1716.47C751.855 1765.27 800.373 1796.5 852.689 1803.33L887.313 1537.87ZM958.184 1584.98L743.62 1213.77L511.85 1347.74L726.414 1718.95L958.184 1584.98ZM743.353 1213.31C770.537 1259.91 754.224 1319.04 707.743 1345.6L574.925 1113.17C493.186 1159.88 463.779 1265.34 512.117 1348.2L743.353 1213.31ZM708.778 1345C662.176 1372.18 603.054 1355.87 576.493 1309.39L808.924 1176.57C762.216 1094.83 656.756 1065.43 573.89 1113.76L708.778 1345ZM576.834 1309.98L766.718 1638.38L998.467 1504.37L808.583 1175.98L576.834 1309.98ZM977.24 1666.02L1817.36 825.899L1628.07 636.605L787.945 1476.73L977.24 1666.02ZM1817.36 825.899C1779.7 863.565 1719.12 863.565 1681.46 825.899L1870.75 636.605C1803.87 569.726 1694.95 569.726 1628.07 636.605L1817.36 825.899ZM1681.46 825.899C1643.79 788.233 1643.79 727.659 1681.46 689.994L1870.75 879.288C1937.63 812.409 1937.63 703.483 1870.75 636.605L1681.46 825.899ZM1681.4 690.048L807.03 1565.43L996.434 1754.61L1870.81 879.233L1681.4 690.048ZM807.085 1565.37C824.849 1547.61 849.208 1537.25 875.037 1537.25V1804.95C921.014 1804.95 964.513 1786.54 996.379 1754.67L807.085 1565.37Z" fill="white" mask="url(#path-3-inside-1_1092_180)"/>
</svg>
