<svg xmlns="http://www.w3.org/2000/svg" viewBox="0 0 32.12 31.41"><defs><style>.cls-1{fill:#2a657e;}</style></defs><g id="Layer_2" data-name="Layer 2"><g id="Layer_1-2" data-name="Layer 1"><g id="_2wuN7M" data-name="2wuN7M"><path class="cls-1" d="M0,4.58c.09,0,.09-.1.1-.17A1.88,1.88,0,0,1,1.16,3a2,2,0,0,1,1-.24q1.17,0,2.34,0a.68.68,0,0,1,.76.54.69.69,0,0,1-.68.86q-1,0-2.07,0H2.09a.68.68,0,0,0-.67.72c0,.69,0,1.39,0,2.09,0,1,0,2,0,3,0,.17,0,.23.22.23H25.29c.22,0,.44,0,.66,0s.11,0,.11-.11,0-.25,0-.38V5.54c0-.23,0-.46,0-.69a.66.66,0,0,0-.68-.73c-.72,0-1.44,0-2.16,0a1.73,1.73,0,0,1-.32,0,.68.68,0,0,1-.55-.72A.7.7,0,0,1,23,2.74l.19,0c.81,0,1.63,0,2.44,0a2,2,0,0,1,1.89,2q0,3.88,0,7.77c0,.2,0,.39,0,.59s0,.12-.13.09a11.91,11.91,0,0,0-1.17-.32c-.11,0-.14-.07-.14-.18,0-.32,0-.65,0-1,0-.15,0-.17-.17-.17H1.7c-.28,0-.28,0-.28.29q0,6.75,0,13.5a.7.7,0,0,0,.7.73H13.58c.13,0,.21,0,.24.16a8.68,8.68,0,0,0,.38,1.12c0,.11,0,.13-.09.13H2.29a2.15,2.15,0,0,1-2-1,1.1,1.1,0,0,1-.19-.87c-.09.07-.08.16-.13.22Z"/><path class="cls-1" d="M22.83,31.41c.15-.07.32,0,.51-.06A7.92,7.92,0,0,1,17,27.54a7.81,7.81,0,0,1-.69-7.35,8,8,0,0,1,9.3-5,8.14,8.14,0,0,1,6.51,8.25,8.18,8.18,0,0,1-7.61,7.91s.07,0,.12,0,.1,0,.15.05Zm1-15a6.48,6.48,0,0,0-3.71,1.07A6.65,6.65,0,0,0,17,23.66a6.47,6.47,0,0,0,1.69,4.09A6.74,6.74,0,0,0,24.83,30a6.92,6.92,0,0,0,5.92-8,5.66,5.66,0,0,0-.87-2.39A7.13,7.13,0,0,0,23.84,16.36Z"/><path class="cls-1" d="M18.26,3.37c0-.74,0-1.47,0-2.21a1,1,0,0,1,.6-1,1.4,1.4,0,0,1,1.53.1,1,1,0,0,1,.42.82V5.66a1,1,0,0,1-.6.91,1.38,1.38,0,0,1-1.5-.1,1,1,0,0,1-.45-.85C18.27,4.87,18.26,4.12,18.26,3.37Z"/><path class="cls-1" d="M6.65,3.38c0-.76,0-1.52,0-2.28A.94.94,0,0,1,7,.36,1.4,1.4,0,0,1,9.11.7a1,1,0,0,1,.09.43V5.51a1.11,1.11,0,0,1-.93,1.18,1.33,1.33,0,0,1-1.39-.41.85.85,0,0,1-.23-.58Z"/><path class="cls-1" d="M5.22,23.3H3.89c-.36,0-.46-.11-.47-.48,0-.64,0-1.28,0-1.92,0-.34.11-.45.45-.45H6.6c.34,0,.47.14.48.47v1.95c0,.27-.17.42-.46.43Z"/><path class="cls-1" d="M5.22,17H3.86c-.33,0-.42-.11-.44-.44,0-.67,0-1.34,0-2a.34.34,0,0,1,.36-.39c1,0,1.91,0,2.87,0a.4.4,0,0,1,.42.45v1.94c0,.29-.16.43-.46.44H5.22Z"/><path class="cls-1" d="M10.92,20.45h1.35c.36,0,.47.12.47.48v1.89c0,.33-.13.47-.47.48H9.56c-.35,0-.46-.12-.46-.46,0-.64,0-1.29,0-1.93,0-.38.1-.46.48-.46Z"/><path class="cls-1" d="M10.89,17H9.55c-.33,0-.44-.1-.45-.43v-2a.35.35,0,0,1,.38-.39c.37,0,.74,0,1.11,0,.59,0,1.17,0,1.75,0,.29,0,.4.15.4.44v1.92c0,.34-.13.47-.47.47H10.89Z"/><path class="cls-1" d="M13.64,4.11h-2.3a.69.69,0,0,1-.73-.85.7.7,0,0,1,.59-.52,3.17,3.17,0,0,1,.44,0q2.13,0,4.26,0a1.77,1.77,0,0,1,.32,0,.64.64,0,0,1,.55.72.65.65,0,0,1-.62.64c-.26,0-.54,0-.81,0h-1.7Z"/><path class="cls-1" d="M18.26,14.25a2.92,2.92,0,0,1-.52.37,10.4,10.4,0,0,0-2.29,2.25A.34.34,0,0,1,15,17c-.17-.05-.19-.2-.19-.34,0-.7,0-1.4,0-2.11,0-.24.09-.32.33-.35l.21,0c.88,0,1.77,0,2.65,0A.58.58,0,0,1,18.26,14.25Z"/><path class="cls-1" d="M23.05,20.83V19.15a.64.64,0,0,1,.82-.66.77.77,0,0,1,.48.77v3.23a.35.35,0,0,0,.16.34,1.1,1.1,0,0,1,.22.21.51.51,0,0,0,.53.24h2.16a.63.63,0,0,1,.65.8.58.58,0,0,1-.46.44,1.12,1.12,0,0,1-.32,0H25.21a.5.5,0,0,0-.45.21,1.33,1.33,0,0,1-1.74.37,1.37,1.37,0,0,1-.11-2.32.3.3,0,0,0,.15-.3c0-.55,0-1.11,0-1.66Z"/></g></g></g></svg>