<svg xmlns="http://www.w3.org/2000/svg" viewBox="0 0 22.03 27.1"><defs><style>.cls-1{fill:#2a657e;}</style></defs><g id="Layer_2" data-name="Layer 2"><g id="Layer_1-2" data-name="Layer 1"><g id="nA4Pll"><path class="cls-1" d="M16.41,0c.29.06.6.09.89.17a4.72,4.72,0,0,1,1.54.76c.52.39,1.05.77,1.55,1.19a4.62,4.62,0,0,1,.69,6.34c-1.77,2.32-3.57,4.61-5.35,6.92-2.08,2.69-4.17,5.37-6.24,8.06a1.29,1.29,0,0,1-.53.4Q5.07,25.42,1.22,27a.85.85,0,0,1-.95-.12A.78.78,0,0,1,0,26.23c0-.63.07-1.25.11-1.88.06-1,.12-2,.17-3.05.08-1.31.15-2.61.23-3.92a.83.83,0,0,1,.21-.49l5.07-6.57,6.57-8.5A4.57,4.57,0,0,1,15.6,0l.12,0ZM18,9.84c0-.06-.07-.08-.11-.11L12,5.28c-.12-.1-.18-.1-.28,0Q7.14,11.25,2.54,17.18c-.08.11-.08.16,0,.24l5.88,4.41c.11.08.16.09.26,0q2.4-3.12,4.82-6.23l4.35-5.63ZM20.4,5.65a3,3,0,0,0-1.14-2.36c-.47-.38-1-.74-1.45-1.1a3,3,0,0,0-4.1.55c-.28.34-.55.7-.82,1-.06.07,0,.11,0,.16l6,4.52c.08.06.12,0,.18,0l.72-.93A3,3,0,0,0,20.4,5.65ZM1.69,25.05,7.1,22.84,2,19.05Z"/></g></g></g></svg>