<svg width="795" height="395" viewBox="0 0 795 395" fill="none" xmlns="http://www.w3.org/2000/svg">
<path d="M795 317.152C795 492.31 561.123 317.152 341.59 317.152C122.056 317.152 0 492.31 0 317.152C0 141.994 177.967 0 397.5 0C617.033 0 795 141.994 795 317.152Z" fill="#F5B436" fill-opacity="0.1"/>
<path d="M540.791 298.253H255.324C243.007 298.253 233 288.245 233 275.928V100.543C233 88.2261 243.007 78.2188 255.324 78.2188H325.761C328.198 78.2188 330.123 80.1432 330.251 82.5809C331.791 119.018 361.685 147.501 398.122 147.501C434.559 147.501 464.324 119.018 465.992 82.5809C466.12 80.1432 468.045 78.2188 470.483 78.2188H540.919C553.236 78.2188 563.243 88.2261 563.243 100.543V275.8C563.243 288.117 553.108 298.253 540.791 298.253ZM255.324 87.1997C248.011 87.1997 241.981 93.2298 241.981 100.543V275.8C241.981 283.113 248.011 289.143 255.324 289.143H540.791C548.104 289.143 554.134 283.113 554.134 275.8V100.543C554.134 93.2298 548.104 87.1997 540.791 87.1997H474.588C470.739 126.331 437.894 156.482 397.993 156.482C358.092 156.482 325.247 126.459 321.398 87.1997H255.324Z" fill="#F5B436"/>
<path d="M558.624 257.581H237.49C235.053 257.581 233 255.528 233 253.09C233 250.652 235.053 248.6 237.49 248.6H558.624C561.062 248.6 563.115 250.652 563.115 253.09C563.243 255.528 561.19 257.581 558.624 257.581Z" fill="#F5B436"/>
<path d="M268.153 277.851H257.761C255.323 277.851 253.271 275.798 253.271 273.361C253.271 270.923 255.323 268.87 257.761 268.87H268.153C270.591 268.87 272.644 270.923 272.644 273.361C272.772 275.798 270.719 277.851 268.153 277.851Z" fill="#9D0D30"/>
<path d="M298.304 277.851H287.911C285.474 277.851 283.421 275.798 283.421 273.361C283.421 270.923 285.474 268.87 287.911 268.87H298.304C300.741 268.87 302.794 270.923 302.794 273.361C302.794 275.798 300.87 277.851 298.304 277.851Z" fill="#9D0D30"/>
<path d="M328.456 277.851H318.064C315.626 277.851 313.573 275.798 313.573 273.361C313.573 270.923 315.626 268.87 318.064 268.87H328.456C330.894 268.87 332.946 270.923 332.946 273.361C332.946 275.798 330.894 277.851 328.456 277.851Z" fill="#9D0D30"/>
<path d="M438.663 351.111H357.577C355.14 351.111 353.087 349.058 353.087 346.62V293.761C353.087 291.323 355.14 289.271 357.577 289.271H438.663C441.1 289.271 443.153 291.323 443.153 293.761V346.62C443.153 349.058 441.1 351.111 438.663 351.111ZM362.068 342.002H434.172V298.123H362.068V342.002Z" fill="#F5B436"/>
<path d="M470.611 351.112H325.632C323.194 351.112 321.142 349.059 321.142 346.621C321.142 344.184 323.194 342.131 325.632 342.131H470.611C473.048 342.131 475.101 344.184 475.101 346.621C475.101 349.059 473.048 351.112 470.611 351.112Z" fill="#F5B436"/>
<path d="M504.612 277.851H494.22C491.782 277.851 489.729 275.798 489.729 273.361C489.729 270.923 491.782 268.87 494.22 268.87H504.612C507.05 268.87 509.103 270.923 509.103 273.361C509.103 275.798 507.178 277.851 504.612 277.851Z" fill="#9D0D30"/>
<path d="M534.761 277.851H524.368C521.931 277.851 519.878 275.798 519.878 273.361C519.878 270.923 521.931 268.87 524.368 268.87H534.761C537.198 268.87 539.251 270.923 539.251 273.361C539.251 275.798 537.198 277.851 534.761 277.851Z" fill="#9D0D30"/>
<path d="M349.751 221.914C347.314 221.914 345.261 219.861 345.261 217.423V187.53C345.261 185.092 347.314 183.039 349.751 183.039C352.189 183.039 354.242 185.092 354.242 187.53V217.423C354.242 219.861 352.189 221.914 349.751 221.914Z" fill="#9D0D30"/>
<path d="M360.785 207.031H349.751C347.314 207.031 345.261 204.978 345.261 202.54V187.657C345.261 185.22 347.314 183.167 349.751 183.167H360.785C367.457 183.167 372.717 188.556 372.717 195.099C372.717 201.642 367.328 207.031 360.785 207.031ZM354.242 197.921H360.785C362.325 197.921 363.736 196.638 363.736 194.971C363.736 193.303 362.453 192.02 360.785 192.02H354.242V197.921Z" fill="#9D0D30"/>
<path d="M364.635 221.915C363.095 221.915 361.684 221.145 360.786 219.862L351.292 204.851C350.009 202.798 350.65 199.976 352.703 198.565C354.756 197.153 357.578 197.923 358.99 199.976L368.484 214.987C369.767 217.04 369.125 219.862 367.073 221.274C366.303 221.787 365.533 221.915 364.635 221.915Z" fill="#9D0D30"/>
<path d="M388.883 221.914C386.445 221.914 384.393 219.861 384.393 217.423V187.53C384.393 185.092 386.445 183.039 388.883 183.039C391.321 183.039 393.374 185.092 393.374 187.53V217.423C393.374 219.861 391.321 221.914 388.883 221.914Z" fill="#9D0D30"/>
<path d="M399.789 207.031H388.883C386.445 207.031 384.393 204.978 384.393 202.54V187.657C384.393 185.22 386.445 183.167 388.883 183.167H399.917C406.588 183.167 411.849 188.556 411.849 195.099C411.849 201.642 406.46 207.031 399.789 207.031ZM393.374 197.921H399.917C401.456 197.921 402.868 196.638 402.868 194.971C402.868 193.303 401.585 192.02 399.917 192.02H393.374V197.921Z" fill="#9D0D30"/>
<path d="M403.767 221.915C402.227 221.915 400.816 221.145 399.918 219.862L390.424 204.851C389.141 202.798 389.782 199.976 391.835 198.564C393.888 197.281 396.71 197.923 398.122 199.976L407.616 214.987C408.899 217.039 408.257 219.862 406.204 221.273C405.435 221.786 404.537 221.915 403.767 221.915Z" fill="#9D0D30"/>
<path d="M467.016 221.914C464.578 221.914 462.525 219.861 462.525 217.423V187.53C462.525 185.092 464.578 183.039 467.016 183.039C469.454 183.039 471.506 185.092 471.506 187.53V217.423C471.506 219.861 469.582 221.914 467.016 221.914Z" fill="#9D0D30"/>
<path d="M478.05 207.031H467.016C464.578 207.031 462.525 204.978 462.525 202.54V187.657C462.525 185.22 464.578 183.167 467.016 183.167H478.05C484.721 183.167 489.981 188.556 489.981 195.099C490.11 201.642 484.721 207.031 478.05 207.031ZM471.506 197.921H478.05C479.589 197.921 481.001 196.638 481.001 194.971C481.001 193.303 479.718 192.02 478.05 192.02H471.506V197.921Z" fill="#9D0D30"/>
<path d="M482.027 221.915C480.487 221.915 479.076 221.145 478.178 219.862L468.683 204.851C467.4 202.798 468.042 199.976 470.095 198.564C472.147 197.281 474.97 197.923 476.381 199.976L485.876 214.987C487.159 217.039 486.517 219.862 484.464 221.273C483.694 221.786 482.796 221.915 482.027 221.915Z" fill="#9D0D30"/>
<path d="M437.125 221.914C426.347 221.914 417.623 213.19 417.623 202.413C417.623 191.636 426.347 182.911 437.125 182.911C447.902 182.911 456.626 191.636 456.626 202.413C456.626 213.19 447.902 221.914 437.125 221.914ZM437.125 192.02C431.351 192.02 426.732 196.767 426.732 202.413C426.732 208.058 431.479 212.805 437.125 212.805C442.77 212.805 447.517 208.058 447.517 202.413C447.645 196.767 442.898 192.02 437.125 192.02Z" fill="#9D0D30"/>
<path d="M310.62 221.914C308.183 221.914 306.13 219.861 306.13 217.423V187.53C306.13 185.092 308.183 183.039 310.62 183.039H329.096C331.533 183.039 333.586 185.092 333.586 187.53C333.586 189.967 331.533 192.02 329.096 192.02H315.111V217.295C315.111 219.989 313.058 221.914 310.62 221.914Z" fill="#9D0D30"/>
<path d="M329.096 221.915H310.62C308.183 221.915 306.13 219.862 306.13 217.424C306.13 214.986 308.183 212.934 310.62 212.934H329.096C331.533 212.934 333.586 214.986 333.586 217.424C333.586 219.862 331.533 221.915 329.096 221.915Z" fill="#9D0D30"/>
<path d="M329.096 207.032H310.62C308.183 207.032 306.13 204.979 306.13 202.541C306.13 200.104 308.183 198.051 310.62 198.051H329.096C331.533 198.051 333.586 200.104 333.586 202.541C333.586 204.979 331.533 207.032 329.096 207.032Z" fill="#9D0D30"/>
<path d="M398.121 156.481C355.654 156.481 321.142 121.968 321.142 79.5013C321.142 37.0341 355.654 2.52148 398.121 2.52148C440.589 2.52148 475.101 37.0341 475.101 79.5013C475.101 121.968 440.46 156.481 398.121 156.481ZM398.121 11.6308C360.658 11.6308 330.251 42.0378 330.251 79.5013C330.251 116.965 360.658 147.372 398.121 147.372C435.585 147.372 465.992 116.965 465.992 79.5013C465.992 42.0378 435.457 11.6308 398.121 11.6308Z" fill="#9D0D30"/>
<path d="M431.223 121.071H364.251C358.092 121.071 352.832 118.505 350.266 114.143C348.983 111.833 347.187 107.086 350.779 100.799L385.42 38.8306C387.088 35.8797 391.45 32.5439 395.684 32.5439H400.046C404.152 32.5439 408.642 35.7514 410.31 38.8306L444.951 100.799C448.543 107.086 446.747 111.833 445.464 114.143C442.642 118.376 437.381 121.071 431.223 121.071ZM395.556 41.5249C394.914 41.6532 393.503 42.5513 393.246 43.0645L358.605 105.033C357.964 106.316 357.194 107.984 357.964 109.395C358.862 110.935 361.3 111.833 364.122 111.833H431.223C434.046 111.833 436.483 110.807 437.381 109.395C438.151 108.112 437.51 106.316 436.74 105.033L402.099 43.0645C401.714 42.5513 400.431 41.5249 399.79 41.5249H395.556Z" fill="#9D0D30"/>
<path d="M397.735 86.396C395.702 86.396 393.99 84.6842 393.99 82.6514V63.0727C393.99 61.0399 395.702 59.3281 397.735 59.3281C399.768 59.3281 401.479 61.0399 401.479 63.0727V82.6514C401.479 84.6842 399.768 86.396 397.735 86.396Z" fill="#9D0D30"/>
<path d="M397.735 102.979C395.702 102.979 393.99 101.267 393.99 99.2347V92.7084C393.99 90.6757 395.702 88.9639 397.735 88.9639C399.768 88.9639 401.479 90.6757 401.479 92.7084V99.2347C401.479 101.267 399.768 102.979 397.735 102.979Z" fill="#9D0D30"/>
</svg>
