<svg xmlns="http://www.w3.org/2000/svg" viewBox="0 0 42.77 37.95"><defs><style>.cls-1{fill:#2a657e;}</style></defs><g id="Layer_2" data-name="Layer 2"><g id="Layer_1-2" data-name="Layer 1"><path class="cls-1" d="M42.35,18.06a1.57,1.57,0,0,0-.92-.24H33.65a1.58,1.58,0,0,0-.87.21,1,1,0,0,0-.44.89,1,1,0,0,0,.43.88,1.45,1.45,0,0,0,.85.22h7.83a1.53,1.53,0,0,0,.82-.18,1,1,0,0,0,.49-.85v-.11A1,1,0,0,0,42.35,18.06Z"/><path class="cls-1" d="M23,5.66h0a1,1,0,0,0,.23.67,1.06,1.06,0,0,0,.63.36,2.64,2.64,0,0,0,.54,0H41.25A3.09,3.09,0,0,0,42,6.68a1,1,0,0,0,.59-.36,1.18,1.18,0,0,0,.22-.65v0A1.11,1.11,0,0,0,42.58,5,1,1,0,0,0,42,4.62a2.76,2.76,0,0,0-.78-.08H24.39a3.07,3.07,0,0,0-.57.06,1,1,0,0,0-.61.36,1.06,1.06,0,0,0-.23.69v0Z"/><polygon class="cls-1" points="42.77 5.67 42.77 5.67 42.77 5.68 42.77 5.67"/><path class="cls-1" d="M16.69,11.28a5.62,5.62,0,0,0,5.62-5.61h0v0A5.63,5.63,0,0,0,16.72,0h0a5.64,5.64,0,0,0-5.62,5.59h0v0A5.65,5.65,0,0,0,16.69,11.28Zm0-2.22a3.43,3.43,0,0,1-3.45-3.41h0a3.43,3.43,0,0,1,3.44-3.42A3.4,3.4,0,0,1,20.11,5.6h0v0a3.39,3.39,0,0,1-3.4,3.43Z"/><path class="cls-1" d="M42.76,32.23a1,1,0,0,0-.84-1,4.59,4.59,0,0,0-.7-.05H28l-.5,0a1.09,1.09,0,0,0-.65.34,1,1,0,0,0-.27.67v.08a1.08,1.08,0,0,0,.25.69,1.18,1.18,0,0,0,.63.36,2,2,0,0,0,.47,0H41.25a2.8,2.8,0,0,0,.73-.07,1,1,0,0,0,.58-.37,1.1,1.1,0,0,0,.21-.65v-.09Z"/><path class="cls-1" d="M20.3,26.67h0a5.62,5.62,0,0,0-5.6,5.64h0a5.63,5.63,0,1,0,11.26,0v0h0A5.64,5.64,0,0,0,20.3,26.67Zm0,9.06h0a3.42,3.42,0,1,1,3.44-3.44v0A3.43,3.43,0,0,1,20.31,35.73Z"/><path class="cls-1" d="M18.52,17.81H1.29A1.45,1.45,0,0,0,.44,18,1,1,0,0,0,0,18.9V19H0a1.33,1.33,0,0,0,.13.52,1,1,0,0,0,.56.45,2,2,0,0,0,.64.09H18.56a1.67,1.67,0,0,0,.37,0,1,1,0,0,0,.85-1h0v0a1.06,1.06,0,0,0-.22-.69,1.1,1.1,0,0,0-.61-.37A2.29,2.29,0,0,0,18.52,17.81Z"/><path class="cls-1" d="M31.71,19h0v0a5.62,5.62,0,0,0-5.61-5.63h0a5.59,5.59,0,0,0-5.63,5.6h0v0a5.59,5.59,0,0,0,5.59,5.62h0A5.61,5.61,0,0,0,31.71,19Zm-9.06-.06a3.44,3.44,0,0,1,3.43-3.41h0a3.46,3.46,0,0,1,3.41,3.42,3.44,3.44,0,1,1-6.87,0Z"/><path class="cls-1" d="M.42,6.5a1.64,1.64,0,0,0,.92.24H9.12v0A1.51,1.51,0,0,0,10,6.53a1,1,0,0,0,.44-.89h0A1,1,0,0,0,10,4.74a1.57,1.57,0,0,0-.86-.21H1.34a1.63,1.63,0,0,0-.84.19A1,1,0,0,0,0,5.58v.11A1,1,0,0,0,.42,6.5Z"/><path class="cls-1" d="M14,32.28h0a1.05,1.05,0,0,0-.28-.71,1.15,1.15,0,0,0-.67-.33,1.59,1.59,0,0,0-.36,0H1.42a3.1,3.1,0,0,0-.58.05,1.06,1.06,0,0,0-.59.35,1,1,0,0,0-.25.63v.09A1.1,1.1,0,0,0,.21,33a1,1,0,0,0,.58.37,2.8,2.8,0,0,0,.73.07H12.68a2,2,0,0,0,.41,0,1.16,1.16,0,0,0,.64-.35,1,1,0,0,0,.26-.72v0Z"/></g></g></svg>