<svg xmlns="http://www.w3.org/2000/svg" viewBox="0 0 90.32 83.94"><defs><style>.cls-1{fill:#e01235;}</style></defs><g id="Layer_2" data-name="Layer 2"><g id="Layer_1-2" data-name="Layer 1"><path class="cls-1" d="M89.15,26.45l-5.94-6a4.09,4.09,0,0,0-5.77,0l-12,11.8V4a4,4,0,0,0-4-4H31.3a6,6,0,0,0-3.92,1.48L26.79,2,2,23.85a5.94,5.94,0,0,0-2,4.44V80a4,4,0,0,0,4,4H61.46a4,4,0,0,0,4-4V55.83L89.13,32.22A4.11,4.11,0,0,0,89.15,26.45ZM28.43,3.22V22.4a2.68,2.68,0,0,1-2.67,2.67H3.64ZM63.44,80a2,2,0,0,1-2,2H4a2,2,0,0,1-2-2V27.07H25.76a4.67,4.67,0,0,0,4.67-4.67V2h31a2,2,0,0,1,2,2V34.17L40.55,56.67a4.09,4.09,0,0,0-1.23,2.91v5.83a4.14,4.14,0,0,0,.58,2.09l-2.3,2.3A1,1,0,0,0,39,71.21l2.31-2.3a4.06,4.06,0,0,0,2.09.58l.43,0,7.43-.79a4,4,0,0,0,2.45-1.17l9.72-9.69Zm2-26.95-2,2L52.31,66.1a2.09,2.09,0,0,1-1.25.59l-7.43.79a2.08,2.08,0,0,1-2.31-2.07V59.58A2.11,2.11,0,0,1,42,58.09L63.44,37l2-2,7-6.85,9,9ZM87.71,30.8l-4.92,4.91-9-9,5-4.92a2.11,2.11,0,0,1,3,0l5.93,6A2.09,2.09,0,0,1,87.71,30.8Z"/></g></g></svg>