<svg xmlns="http://www.w3.org/2000/svg" viewBox="0 0 68.96 59.44"><defs><style>.cls-1{fill:#e21437;}</style></defs><g id="Layer_2" data-name="Layer 2"><g id="Layer_1-2" data-name="Layer 1"><path class="cls-1" d="M64.8,59.44H4.15A4.15,4.15,0,0,1,0,55.29V4.15A4.15,4.15,0,0,1,4.15,0H64.8A4.16,4.16,0,0,1,69,4.15V55.29A4.16,4.16,0,0,1,64.8,59.44ZM4.15,2A2.16,2.16,0,0,0,2,4.15V55.29a2.16,2.16,0,0,0,2.15,2.15H64.8A2.16,2.16,0,0,0,67,55.29V4.15A2.16,2.16,0,0,0,64.8,2Z"/><rect class="cls-1" x="1.34" y="16.89" width="66.61" height="2"/><circle class="cls-1" cx="9.28" cy="9.86" r="3.12"/><circle class="cls-1" cx="18.57" cy="9.86" r="3.12"/><circle class="cls-1" cx="27.86" cy="9.86" r="3.12"/></g></g></svg>