<svg id="Layer_1" viewBox="0 0 512 512" xmlns="http://www.w3.org/2000/svg" data-name="Layer 1"><path d="m282.939 72.487-37.72-37.72v37.72zm-187.229 65.427a5.5 5.5 0 1 1 0-10.992h144.931a5.5 5.5 0 1 1 0 10.992zm0 52.69a5.5 5.5 0 1 1 0-10.992h27.167a5.5 5.5 0 0 1 0 10.992zm357.422 23.667-37.72-37.72v37.72zm-39.281-54.824 56.386 56.385a5.484 5.484 0 0 1 1.659 3.935v270.733a5.5 5.5 0 0 1 -5.5 5.5h-250.602a5.5 5.5 0 0 1 -5.5-5.5v-136.287h-164.694a5.5 5.5 0 0 1 -5.5-5.5v-327.213a5.5 5.5 0 0 1 5.5-5.5h194.122a5.481 5.481 0 0 1 3.935 1.659l56.386 56.386a5.479 5.479 0 0 1 1.66 3.935v79.8h108.213a5.478 5.478 0 0 1 3.935 1.66zm-74.635 120.253h71.619a5.5 5.5 0 1 0 0-10.992h-71.619a5.5 5.5 0 0 0 0 10.992zm-5.124 52.69h76.743a5.5 5.5 0 1 0 0-10.992h-76.743a5.5 5.5 0 0 0 0 10.992zm-68.192 52.688h144.935a5.5 5.5 0 1 0 0-10.992h-144.935a5.5 5.5 0 0 0 0 10.992zm-75.727-120.611a100.882 100.882 0 0 1 -27.037-29.538 89.893 89.893 0 0 0 98.46 82.5q4.158-.407 8.471-1.255a5.49 5.49 0 0 1 6.826 5.334v7.795l49.517-30.934-49.517-30.934-.006 8.367a5.49 5.49 0 0 1 -4.245 5.346 100.7 100.7 0 0 1 -82.469-16.684zm31.117 3.843v-99.53h183.13v50.987a5.5 5.5 0 0 0 5.5 5.5h50.98v259.733h-239.61v-161.149a100.792 100.792 0 0 0 44.611 4.116l.009 11.242a5.493 5.493 0 0 0 8.385 4.659l65.288-40.787a5.49 5.49 0 0 0 .081-9.368l-65.082-40.658a5.494 5.494 0 0 0 -8.681 4.48v13.814a90.682 90.682 0 0 1 -44.611-3.039zm-38.374-25.016a89.967 89.967 0 0 0 27.384 20.555v-20.555zm-18.877-32.6c-1.429-5.716-9.75-5.433-10.733.425a100.8 100.8 0 0 0 -1.333 21.179h-56.263a5.5 5.5 0 1 0 0 10.992h57.321a100.927 100.927 0 0 0 57.269 76.227v23.7h-159.2v-316.217h183.13v50.983a5.5 5.5 0 0 0 5.5 5.5h50.98v74.308h-74.916a5.5 5.5 0 0 0 -5.5 5.5v16.328h-56.975a5.5 5.5 0 1 0 0 10.992h56.981v41.7h-35.893a89.437 89.437 0 0 1 -10.368-21.611z" fill-rule="evenodd"/></svg>