<svg xmlns="http://www.w3.org/2000/svg" viewBox="0 0 32.23 37.13"><defs><style>.cls-1{fill:#fff;}</style></defs><g id="Layer_2" data-name="Layer 2"><g id="Layer_1-2" data-name="Layer 1"><path class="cls-1" d="M1.38,37.13A1.52,1.52,0,0,0,1.89,37a2.75,2.75,0,0,0,.68-.45l13-10.12.24-.18a.55.55,0,0,1,.29-.09.53.53,0,0,1,.29.09l.25.18,9,7,4.28,3.32a1.36,1.36,0,0,0,.86.33h0a1.39,1.39,0,0,0,1.4-1.47V4.73A4.66,4.66,0,0,0,27.51,0H4.76A4.87,4.87,0,0,0,4.1,0,4.67,4.67,0,0,0,0,4.67V35.73A1.37,1.37,0,0,0,1.38,37.13ZM2.77,4.68a1.85,1.85,0,0,1,1.86-1.9H27.39a2.06,2.06,0,0,1,1.52.55,2.09,2.09,0,0,1,.54,1.53V32.94l-.4-.31c-.68-.53-1.32-1-1.95-1.51-2.83-2.25-5.7-4.44-8.55-6.65-.5-.39-1-.8-1.47-1.18a1.6,1.6,0,0,0-1-.39,1.53,1.53,0,0,0-1,.39L8.49,28.52,3.56,32.33l-.34.25-.3.21-.09-.36-.05-.25v0q0-8,0-16Z"/></g></g></svg>