<svg xmlns="http://www.w3.org/2000/svg" viewBox="0 0 41.2 41.22"><defs><style>.cls-1{fill:#2a657e;}</style></defs><g id="Layer_2" data-name="Layer 2"><g id="Layer_1-2" data-name="Layer 1"><g id="a6GFJy"><path class="cls-1" d="M37.43,41.22a4.73,4.73,0,0,1-2.56-1.56c-3-3-6-6-9-9-.67-.67-.68-1-.05-1.65.13-.14.12-.21,0-.35-.75-.82-.74-.8-1.66-.19A15.1,15.1,0,0,1,17.3,31a15.34,15.34,0,0,1-8.88-1.62,15.09,15.09,0,0,1-6-5.57A15.34,15.34,0,0,1,.06,16.7,2.14,2.14,0,0,0,0,16.43V14.65c.05-.38.1-.76.16-1.15A15.2,15.2,0,0,1,7.58,2.22,14.7,14.7,0,0,1,17.14.11,15,15,0,0,1,29.4,8.56a15.14,15.14,0,0,1,0,14.05,12.56,12.56,0,0,1-1.35,2.18c-.15.19-.15.33,0,.47a2.49,2.49,0,0,1,.23.23c.16.15.31.39.5.44s.3-.24.48-.36a.8.8,0,0,1,1,0,2.52,2.52,0,0,1,.3.27l9.45,9.44a3.36,3.36,0,0,1,1,3.48,3.25,3.25,0,0,1-2.56,2.39l-.27.08Zm-8-25.67a13.9,13.9,0,1,0-13.15,13.9A13.89,13.89,0,0,0,29.44,15.55ZM39.59,37.89A1.92,1.92,0,0,0,39,36.55q-4.5-4.48-9-9c-.17-.18-.27-.19-.45,0-.64.67-1.29,1.33-2,2-.25.24-.23.36,0,.6C30.56,33,33.49,36,36.42,38.9a3.73,3.73,0,0,0,.36.32,1.64,1.64,0,0,0,1.81.19A1.72,1.72,0,0,0,39.59,37.89ZM27.68,27.21l-.17-.2c-.17-.18-.36-.35-.53-.54s-.22-.1-.35,0-.35.4,0,.63c.13.09.22.23.35.34s.13.24.27.14A5.9,5.9,0,0,0,27.68,27.21Z"/><path class="cls-1" d="M27.79,15.54A12.24,12.24,0,1,1,15.55,3.32,12.24,12.24,0,0,1,27.79,15.54ZM15.55,26.15A10.59,10.59,0,1,0,5,15.55,10.64,10.64,0,0,0,15.55,26.15Z"/><path class="cls-1" d="M16.58,7.73a7.7,7.7,0,0,0-4.12.57,7.43,7.43,0,0,0-2.13,1.34,3.62,3.62,0,0,1-.42.36A.8.8,0,0,1,8.85,8.8a9.09,9.09,0,0,1,1.87-1.45,9.7,9.7,0,0,1,6.15-1.23A.86.86,0,0,1,17.7,7C17.68,7.48,17.29,7.76,16.58,7.73Z"/><path class="cls-1" d="M15.52,25.07l-.93,0a.85.85,0,0,1-.88-.86.82.82,0,0,1,.95-.76,8.77,8.77,0,0,0,3.14-.29,7.74,7.74,0,0,0,2.93-1.62,6.26,6.26,0,0,1,.49-.41.8.8,0,0,1,1.06,1.19,8,8,0,0,1-1.46,1.2A9.43,9.43,0,0,1,15.52,25.07Z"/><path class="cls-1" d="M22.52,9.38a.82.82,0,0,1-.41.7.72.72,0,0,1-.83,0c-.6-.45-1.19-.91-1.76-1.39a.75.75,0,0,1-.13-1,.76.76,0,0,1,.95-.32,6.77,6.77,0,0,1,2,1.61A1,1,0,0,1,22.52,9.38Z"/><path class="cls-1" d="M9.39,20.92a.69.69,0,0,1,.42.12c.56.44,1.14.88,1.69,1.35a.76.76,0,0,1,.09,1.05.78.78,0,0,1-1,.22,5.25,5.25,0,0,1-.79-.54,10.3,10.3,0,0,1-.94-.81.77.77,0,0,1-.19-.92A.75.75,0,0,1,9.39,20.92Z"/></g></g></g></svg>