<?xml version="1.0" encoding="UTF-8"?>
<svg id="Layer_2" xmlns="http://www.w3.org/2000/svg" viewBox="0 0 85.3 74.51">
  <defs>
    <style>
      .cls-1 {
        fill: #1c1c1c;
      }
    </style>
  </defs>
  <g id="Layer_1-2" data-name="Layer_1">
    <g>
      <path class="cls-1" d="M85.28,0h-2.52S6.83.01,6.83.01C3.06.01,0,3.07,0,6.84v44.45c0,3.76,3.07,6.83,6.83,6.83h7.06v12.33c0,1.66,1,3.14,2.51,3.76.54.19,1.09.3,1.57.3,1.11,0,2.15-.46,2.94-1.28l14.24-15.11h43.32c3.77,0,6.83-3.07,6.83-6.84V.14s0-.09-.02-.14ZM82.74,51.29c0,2.35-1.92,4.27-4.27,4.27H31.61c-.36,0-.71.15-.94.39l-14.03,15.72-.2-14.83c0-.7-.57-1.28-1.28-1.28H6.83c-2.36,0-4.28-1.92-4.28-4.27V6.84c0-2.36,1.92-4.28,4.28-4.28h75.91v48.73Z"/>
      <path class="cls-1" d="M59.33,29.06c0,3.05,2.47,5.55,5.55,5.55s5.55-2.5,5.55-5.55-2.5-5.55-5.55-5.55-5.55,2.5-5.55,5.55Z"/>
      <path class="cls-1" d="M14.89,29.06c0,3.05,2.47,5.55,5.55,5.55s5.55-2.5,5.55-5.55-2.5-5.55-5.55-5.55-5.55,2.5-5.55,5.55Z"/>
      <path class="cls-1" d="M37.11,29.06c0,3.05,2.47,5.55,5.55,5.55s5.55-2.5,5.55-5.55-2.5-5.55-5.55-5.55-5.55,2.5-5.55,5.55Z"/>
    </g>
  </g>
</svg>