<?xml version="1.0" encoding="UTF-8"?>
<svg id="Layer_2" xmlns="http://www.w3.org/2000/svg" viewBox="0 0 92.94 81.56">
  <defs>
    <style>
      .cls-1 {
        fill: #1c1c1c;
      }

      .cls-2 {
        fill: #bc335a;
      }
    </style>
  </defs>
  <g id="Layer_1-2" data-name="Layer_1">
    <g>
      <path class="cls-1" d="M85.3,27.61v30.72c0,3.77-3.06,6.84-6.83,6.84h-43.32l-14.24,15.11c-.79.82-1.83,1.28-2.94,1.28-.48,0-1.03-.11-1.57-.3-1.51-.62-2.51-2.1-2.51-3.76v-12.33h-7.06c-3.76,0-6.83-3.07-6.83-6.83V13.89c0-3.77,3.06-6.83,6.83-6.83h58.58c.71,0,1.28.57,1.28,1.28s-.57,1.27-1.28,1.27H6.83c-2.36,0-4.28,1.92-4.28,4.28v44.45c0,2.35,1.92,4.27,4.28,4.27h8.33c.71,0,1.28.58,1.28,1.28l.2,14.83,14.03-15.72c.23-.24.58-.39.94-.39h46.86c2.35,0,4.27-1.92,4.27-4.27v-30.73c0-.7.58-1.28,1.28-1.28s1.28.58,1.28,1.28Z"/>
      <path class="cls-1" d="M59.33,36.11c0,3.05,2.47,5.55,5.55,5.55s5.55-2.5,5.55-5.55-2.5-5.55-5.55-5.55-5.55,2.5-5.55,5.55Z"/>
      <path class="cls-1" d="M14.89,36.11c0,3.05,2.47,5.55,5.55,5.55s5.55-2.5,5.55-5.55-2.5-5.55-5.55-5.55-5.55,2.5-5.55,5.55Z"/>
      <path class="cls-2" d="M81.83,0c-6.14,0-11.11,5-11.11,11.11s4.97,11.11,11.11,11.11,11.11-4.97,11.11-11.11S87.97,0,81.83,0Z"/>
      <path class="cls-1" d="M37.11,36.11c0,3.05,2.47,5.55,5.55,5.55s5.55-2.5,5.55-5.55-2.5-5.55-5.55-5.55-5.55,2.5-5.55,5.55Z"/>
    </g>
  </g>
</svg>